<?xml version="1.0" encoding="UTF-8"?>
<svg width="22px" height="23px" viewBox="0 0 22 23" version="1.1" xmlns="http://www.w3.org/2000/svg" xmlns:xlink="http://www.w3.org/1999/xlink">
    <!-- Generator: Sketch 50.2 (55047) - http://www.bohemiancoding.com/sketch -->
    <title>loading_02</title>
    <desc>Created with Sketch.</desc>
    <defs></defs>
    <g id="Page-1" stroke="none" stroke-width="1" fill="none" fill-rule="evenodd">
        <g id="logo" transform="translate(0.000000, -27.000000)" fill="#D99956" fill-rule="nonzero">
            <path d="M1,27.0424022 L2.06607389,27.0424022 C2.61835864,27.0424022 3.06607389,27.4901175 3.06607389,28.0424022 L3.06607389,48.0752342 C3.06607389,48.6275189 2.61835864,49.0752342 2.06607389,49.0752342 L1,49.0752342 C0.44771525,49.0752342 6.76353751e-17,48.6275189 0,48.0752342 L0,28.0424022 C-6.76353751e-17,27.4901175 0.44771525,27.0424022 1,27.0424022 Z M10.3898513,27.0424022 L11.4559252,27.0424022 C12.0082099,27.0424022 12.4559252,27.4901175 12.4559252,28.0424022 L12.4559252,48.0752342 C12.4559252,48.6275189 12.0082099,49.0752342 11.4559252,49.0752342 L10.3898513,49.0752342 C9.83756655,49.0752342 9.3898513,48.6275189 9.3898513,48.0752342 L9.3898513,28.0424022 C9.3898513,27.4901175 9.83756655,27.0424022 10.3898513,27.0424022 Z M20.8457765,49.0752342 L19.7797026,49.0752342 C19.2274178,49.0752342 18.7797026,48.6275189 18.7797026,48.0752342 L18.7797026,28.0424022 C18.7797026,27.4901175 19.2274178,27.0424022 19.7797026,27.0424022 L20.8457765,27.0424022 C21.3980612,27.0424022 21.8457765,27.4901175 21.8457765,28.0424022 L21.8457765,48.0752342 C21.8457765,48.6275189 21.3980612,49.0752342 20.8457765,49.0752342 Z" id="loading_02"></path>
        </g>
    </g>
</svg>