<?xml version="1.0" encoding="UTF-8"?>
<svg width="22px" height="23px" viewBox="0 0 22 23" version="1.1" xmlns="http://www.w3.org/2000/svg" xmlns:xlink="http://www.w3.org/1999/xlink">
    <!-- Generator: Sketch 50.2 (55047) - http://www.bohemiancoding.com/sketch -->
    <title>loading_01</title>
    <desc>Created with Sketch.</desc>
    <defs></defs>
    <g id="Page-1" stroke="none" stroke-width="1" fill="none" fill-rule="evenodd">
        <g id="logo" fill="#D99956" fill-rule="nonzero">
            <path d="M12.4559252,18.9405047 L18.7797026,18.9405047 L18.7797026,1 C18.7797026,0.44771525 19.2274178,-9.5692398e-18 19.7797026,-1.11022302e-16 L20.8457765,0 C21.3980612,-1.01453063e-16 21.8457765,0.44771525 21.8457765,1 L21.8457765,21.032832 C21.8457765,21.5851167 21.3980612,22.032832 20.8457765,22.032832 L1,22.032832 C0.44771525,22.032832 6.76353751e-17,21.5851167 0,21.032832 L0,1 C-6.76353751e-17,0.44771525 0.44771525,1.01453063e-16 1,0 L2.06607389,0 C2.61835864,-1.01453063e-16 3.06607389,0.44771525 3.06607389,1 L3.06607389,18.9405047 L9.3898513,18.9405047 L9.3898513,1 C9.3898513,0.44771525 9.83756655,1.01453063e-16 10.3898513,0 L11.4559252,0 C12.0082099,-1.01453063e-16 12.4559252,0.44771525 12.4559252,1 L12.4559252,18.9405047 Z" id="loading_01"></path>
        </g>
    </g>
</svg>