<?xml version="1.0" encoding="UTF-8"?>
<svg width="22px" height="23px" viewBox="0 0 22 23" version="1.1" xmlns="http://www.w3.org/2000/svg" xmlns:xlink="http://www.w3.org/1999/xlink">
    <!-- Generator: Sketch 50.2 (55047) - http://www.bohemiancoding.com/sketch -->
    <title>loading_04</title>
    <desc>Created with Sketch.</desc>
    <defs></defs>
    <g id="Page-1" stroke="none" stroke-width="1" fill="none" fill-rule="evenodd">
        <g id="logo" transform="translate(-28.000000, -26.000000)" fill="#D99956" fill-rule="nonzero">
            <path d="M31.1436456,29.5665144 L37.467423,29.5665144 L37.467423,27.3620902 C37.467423,26.8098055 37.9151382,26.3620902 38.467423,26.3620902 L39.5334969,26.3620902 C40.0857816,26.3620902 40.5334969,26.8098055 40.5334969,27.3620902 L40.5334969,29.5665144 L48.9211066,29.5665144 C49.4733914,29.5665144 49.9211066,30.0142296 49.9211066,30.5665144 C49.9211066,30.5672607 49.9211058,30.568007 49.9211041,30.5687534 L49.9025866,38.8391454 C49.901352,39.3905546 49.4539997,39.8369064 48.9025891,39.8369064 L47.8374874,39.8369064 C47.2852027,39.8369064 46.8374874,39.3891911 46.8374874,38.8369064 C46.8374874,38.8358385 46.8374891,38.8347707 46.8374926,38.8337028 L46.8572743,32.6588417 L40.5334969,32.6588417 L40.5334969,38.8369064 C40.5334969,39.3891911 40.0857816,39.8369064 39.5334969,39.8369064 L38.467423,39.8369064 C37.9151382,39.8369064 37.467423,39.3891911 37.467423,38.8369064 L37.467423,32.6588417 L31.1436456,32.6588417 L31.1436456,45.3025949 L48.9233482,45.3025949 C49.4756329,45.3025949 49.9233482,45.7503101 49.9233482,46.3025949 L49.9233482,47.3949222 C49.9233482,47.9472069 49.4756329,48.3949222 48.9233482,48.3949222 L29.0775717,48.3949222 C28.5252869,48.3949222 28.0775717,47.9472069 28.0775717,47.3949222 L28.0775717,27.3620902 C28.0775717,26.8098055 28.5252869,26.3620902 29.0775717,26.3620902 L30.1436456,26.3620902 C30.6959303,26.3620902 31.1436456,26.8098055 31.1436456,27.3620902 L31.1436456,29.5665144 Z" id="loading_04"></path>
        </g>
    </g>
</svg>