<?xml version="1.0" encoding="UTF-8"?>
<svg width="24px" height="23px" viewBox="0 0 24 23" version="1.1" xmlns="http://www.w3.org/2000/svg" xmlns:xlink="http://www.w3.org/1999/xlink">
    <!-- Generator: Sketch 50.2 (55047) - http://www.bohemiancoding.com/sketch -->
    <title>loading_03</title>
    <desc>Created with Sketch.</desc>
    <defs></defs>
    <g id="Page-1" stroke="none" stroke-width="1" fill="none" fill-rule="evenodd">
        <g id="logo" transform="translate(-26.000000, 0.000000)" fill="#D99956" fill-rule="nonzero">
            <path d="M40.2738152,11.016416 L48.9655581,19.7825824 C49.3520718,20.1724056 49.3520718,20.8009311 48.9655581,21.1907543 L48.2057396,21.9570788 C47.8168837,22.3492643 47.1837244,22.3519635 46.7915389,21.9631076 C46.7895208,21.9611066 46.7875111,21.959097 46.7855101,21.9570788 L38.1057736,13.2030216 L29.426037,21.9570788 C29.0371811,22.3492643 28.4040219,22.3519635 28.0118363,21.9631076 C28.0098182,21.9611066 28.0078086,21.959097 28.0058075,21.9570788 L27.245989,21.1907543 C26.8594753,20.8009311 26.8594753,20.1724056 27.245989,19.7825824 L43.7945463,3.0923273 L34.668043,3.0923273 L29.4514939,8.54220465 C29.0696037,8.94117622 28.4365902,8.9550234 28.0376186,8.57313319 C28.0355668,8.57116924 28.0335234,8.56919656 28.0314884,8.5672152 L27.2586217,7.81471463 C26.8653006,7.43175807 26.854232,6.80332717 27.2338234,6.4067573 L32.77565,0.617053224 C33.1529231,0.222905262 33.6748463,-5.6590733e-16 34.2204539,-6.66133815e-16 L47.1171569,-1.77635684e-15 C48.056041,-1.94882705e-15 48.8171569,0.761115925 48.8171569,1.7 C48.8171569,2.14835729 48.640034,2.57856103 48.324352,2.89694615 L40.2738152,11.016416 Z" id="loading_03"></path>
        </g>
    </g>
</svg>